<svg width="30" height="30" viewBox="0 0 24 25" fill="none" xmlns="http://www.w3.org/2000/svg">
<path d="M7.8 2.87036H16.2C19.4 2.87036 22 5.47036 22 8.67036V17.0704C22 18.6086 21.3889 20.0839 20.3012 21.1716C19.2135 22.2593 17.7383 22.8704 16.2 22.8704H7.8C4.6 22.8704 2 20.2704 2 17.0704V8.67036C2 7.13211 2.61107 5.65685 3.69878 4.56914C4.78649 3.48143 6.26174 2.87036 7.8 2.87036ZM7.6 4.87036C6.64522 4.87036 5.72955 5.24965 5.05442 5.92478C4.37928 6.59991 4 7.51558 4 8.47036V17.2704C4 19.2604 5.61 20.8704 7.6 20.8704H16.4C17.3548 20.8704 18.2705 20.4911 18.9456 19.8159C19.6207 19.1408 20 18.2251 20 17.2704V8.47036C20 6.48036 18.39 4.87036 16.4 4.87036H7.6ZM17.25 6.37036C17.5815 6.37036 17.8995 6.50206 18.1339 6.73648C18.3683 6.9709 18.5 7.28884 18.5 7.62036C18.5 7.95188 18.3683 8.26982 18.1339 8.50424C17.8995 8.73867 17.5815 8.87036 17.25 8.87036C16.9185 8.87036 16.6005 8.73867 16.3661 8.50424C16.1317 8.26982 16 7.95188 16 7.62036C16 7.28884 16.1317 6.9709 16.3661 6.73648C16.6005 6.50206 16.9185 6.37036 17.25 6.37036ZM12 7.87036C13.3261 7.87036 14.5979 8.39715 15.5355 9.33483C16.4732 10.2725 17 11.5443 17 12.8704C17 14.1964 16.4732 15.4682 15.5355 16.4059C14.5979 17.3436 13.3261 17.8704 12 17.8704C10.6739 17.8704 9.40215 17.3436 8.46447 16.4059C7.52678 15.4682 7 14.1964 7 12.8704C7 11.5443 7.52678 10.2725 8.46447 9.33483C9.40215 8.39715 10.6739 7.87036 12 7.87036ZM12 9.87036C11.2044 9.87036 10.4413 10.1864 9.87868 10.749C9.31607 11.3116 9 12.0747 9 12.8704C9 13.666 9.31607 14.4291 9.87868 14.9917C10.4413 15.5543 11.2044 15.8704 12 15.8704C12.7956 15.8704 13.5587 15.5543 14.1213 14.9917C14.6839 14.4291 15 13.666 15 12.8704C15 12.0747 14.6839 11.3116 14.1213 10.749C13.5587 10.1864 12.7956 9.87036 12 9.87036Z" fill="black"/>
</svg>
